name analog
datacolumns 19
datarows 41
range 0.0 0.02
endheader
time	ground_force_vx	ground_force_vy	ground_force_vz	ground_force_px	ground_force_py	ground_force_pz	l_ground_force_vx	l_ground_force_vy	l_ground_force_vz	l_ground_force_px	l_ground_force_py	l_ground_force_pz	ground_torque_x	ground_torque_y	ground_torque_z	l_ground_torque_x	l_ground_torque_y	l_ground_torque_z
0.0	-0.0	-0.0	-0.0	2.24814248085022	11.426742553710938	-168.67918395996094	-2.9635872840881348	-15.968775749206545	-476.2427978515625	-0.0	-0.0	-0.0	-0.0	-0.0	-0.0	128779.890625	-17296.3671875	-2746.976806640625
0.0005	-0.0	-0.0	-0.0	2.087756395339966	12.014662742614746	-168.39573669433594	-2.78593373298645	-15.880376815795898	-475.5444946289063	-0.0	-0.0	-0.0	-0.0	-0.0	-0.0	128880.3984375	-17240.248046875	-2663.77392578125
0.001	-0.0	-0.0	-0.0	2.14105224609375	12.067719459533691	-167.76046752929688	-3.246964693069458	-15.968635559082031	-473.8682861328125	-0.0	-0.0	-0.0	-0.0	-0.0	-0.0	128593.671875	-17371.333984375	-2782.9697265625
0.0015	-0.0	-0.0	-0.0	1.714349389076233	11.855598449707031	-170.4376678466797	-3.229066133499145	-15.880257606506348	-474.7763366699219	-0.0	-0.0	-0.0	-0.0	-0.0	-0.0	128681.6875	-17102.423828125	-2741.353759765625
0.002	-0.0	-0.0	-0.0	1.5363861322402954	11.978143692016602	-169.02932739257812	-3.548431396484375	-16.05681037902832	-475.1238098144531	-0.0	-0.0	-0.0	-0.0	-0.0	-0.0	128717.9140625	-17108.548828125	-2723.77978515625
0.0025	-0.0	-0.0	-0.0	1.7659766674041748	12.19264793395996	-168.8999481201172	-2.998288154602051	-16.180667877197266	-474.0748596191406	-0.0	-0.0	-0.0	-0.0	-0.0	-0.0	128539.5625	-17043.83984375	-2699.69189453125
0.003	-0.0	-0.0	-0.0	1.3747801780700684	12.514845848083496	-170.29592895507812	-3.4417648315429688	-16.020915985107422	-474.1521301269531	-0.0	-0.0	-0.0	-0.0	-0.0	-0.0	128240.09375	-17183.591796875	-2848.260986328125
0.0035	-0.0	-0.0	-0.0	1.500898003578186	12.244897842407228	-168.7472381591797	-3.883826494216919	-15.793049812316896	-474.289794921875	-0.0	-0.0	-0.0	-0.0	-0.0	-0.0	128346.21875	-17091.46875	-2901.318603515625
0.004	-0.0	-0.0	-0.0	1.5165786743164062	12.3737154006958	-170.086669921875	-3.6715822219848633	-15.704981803894045	-472.815673828125	-0.0	-0.0	-0.0	-0.0	-0.0	-0.0	128077.5	-16813.947265625	-2943.340576171875
0.0045000000000000005	-0.0	-0.0	-0.0	1.832961082458496	12.478256225585938	-169.67303466796875	-3.9374828338623047	-15.33179759979248	-472.4021606445313	-0.0	-0.0	-0.0	-0.0	-0.0	-0.0	128253.265625	-17094.546875	-3002.05126953125
0.005	-0.0	-0.0	-0.0	2.1744978427886963	12.478256225585938	-172.0722198486328	-3.7987775802612314	-15.560333251953123	-472.617431640625	-0.0	-0.0	-0.0	-0.0	-0.0	-0.0	127949.484375	-16889.833984375	-2902.355224609375
0.0055	-0.0	-0.0	-0.0	1.6535820960998535	12.28135108947754	-170.32281494140625	-4.046895980834961	-15.087579727172852	-472.2580871582031	-0.0	-0.0	-0.0	-0.0	-0.0	-0.0	128016.359375	-16913.7578125	-2872.81982421875
0.006	-0.0	-0.0	-0.0	1.892158269882202	13.0272855758667	-171.21807861328125	-4.095888614654541	-15.297950744628906	-472.11279296875	-0.0	-0.0	-0.0	-0.0	-0.0	-0.0	127488.5390625	-16848.1171875	-2920.0205078125
0.006500000000000001	-0.0	-0.0	-0.0	1.6714013814926147	13.256853103637695	-172.0176239013672	-4.062252998352051	-15.36797332763672	-470.8741455078125	-0.0	-0.0	-0.0	-0.0	-0.0	-0.0	127464.359375	-16776.265625	-2890.371826171875
0.007	-0.0	-0.0	-0.0	1.924872875213623	12.731966018676758	-171.44175720214844	-4.080696105957031	-15.172890663146973	-470.8597717285156	-0.0	-0.0	-0.0	-0.0	-0.0	-0.0	127506.03125	-16568.791015625	-2948.38818359375
0.0075	-0.0	-0.0	-0.0	1.827603816986084	12.759072303771973	-172.09542846679688	-3.6743106842041016	-15.256956100463867	-470.7129821777344	-0.0	-0.0	-0.0	-0.0	-0.0	-0.0	127556.640625	-16650.51171875	-2841.8076171875
0.008	-0.0	-0.0	-0.0	2.0138118267059326	12.994040489196776	-173.89186096191406	-3.865963697433472	-15.437721252441406	-469.075439453125	-0.0	-0.0	-0.0	-0.0	-0.0	-0.0	127214.0078125	-16630.76953125	-2837.231201171875
0.0085	-0.0	-0.0	-0.0	1.98172390460968	12.325318336486816	-173.3605194091797	-3.623362302780152	-15.33067226409912	-469.97760009765625	-0.0	-0.0	-0.0	-0.0	-0.0	-0.0	126920.4453125	-16546.97265625	-2830.818603515625
0.009000000000000001	-0.0	-0.0	-0.0	1.6249459981918335	12.57995891571045	-174.1437225341797	-3.64241361618042	-15.354507446289062	-468.5822448730469	-0.0	-0.0	-0.0	-0.0	-0.0	-0.0	126854.9140625	-16710.779296875	-2794.91015625
0.0095	-0.0	-0.0	-0.0	1.828027844429016	12.548174858093262	-174.6992645263672	-3.161482334136963	-15.943048477172852	-469.33404541015625	-0.0	-0.0	-0.0	-0.0	-0.0	-0.0	126888.15625	-16805.517578125	-2712.034912109375
0.01	-0.0	-0.0	-0.0	1.7529155015945437	13.20327854156494	-175.02438354492188	-3.2185420989990234	-15.72126007080078	-467.5140380859375	-0.0	-0.0	-0.0	-0.0	-0.0	-0.0	126662.59375	-16791.923828125	-2542.404541015625
0.0105	-0.0	-0.0	-0.0	1.912159204483032	12.656517028808594	-177.4961395263672	-2.8640806674957275	-15.708635330200195	-467.114990234375	-0.0	-0.0	-0.0	-0.0	-0.0	-0.0	126289.203125	-16768.396484375	-2616.46240234375
0.011	-0.0	-0.0	-0.0	2.102158308029175	12.923908233642578	-176.39076232910156	-3.244129180908203	-16.005226135253906	-466.1438293457031	-0.0	-0.0	-0.0	-0.0	-0.0	-0.0	126304.8515625	-16976.59375	-2567.998291015625
0.0115	-0.0	-0.0	-0.0	1.7730721235275269	12.83477783203125	-176.7445068359375	-2.541369199752808	-15.67108154296875	-464.8240051269531	-0.0	-0.0	-0.0	-0.0	-0.0	-0.0	125923.0390625	-16887.775390625	-2626.671142578125
0.012	-0.0	-0.0	-0.0	2.219353199005127	13.558720588684082	-178.15768432617188	-2.661323547363281	-15.866966247558594	-465.7393493652344	-0.0	-0.0	-0.0	-0.0	-0.0	-0.0	125957.90625	-17027.751953125	-2531.33251953125
0.0125	-0.0	-0.0	-0.0	2.240861415863037	13.071944236755373	-176.97898864746094	-2.225507974624634	-15.52541160583496	-465.34320068359375	-0.0	-0.0	-0.0	-0.0	-0.0	-0.0	125815.4765625	-17145.44921875	-2444.427978515625
0.013000000000000001	-0.0	-0.0	-0.0	2.111015558242798	13.16128921508789	-178.54930114746094	-2.545157194137573	-15.563892364501951	-463.9463195800781	-0.0	-0.0	-0.0	-0.0	-0.0	-0.0	125478.078125	-17229.1796875	-2457.636962890625
0.0135	-0.0	-0.0	-0.0	1.9230366945266724	12.953700065612791	-178.5126190185547	-2.3453469276428223	-15.613590240478516	-463.2809753417969	-0.0	-0.0	-0.0	-0.0	-0.0	-0.0	125494.9765625	-17250.935546875	-2431.586669921875
0.014	-0.0	-0.0	-0.0	2.1710829734802246	13.20144748687744	-181.1026306152344	-2.34549880027771	-15.072957038879396	-462.353515625	-0.0	-0.0	-0.0	-0.0	-0.0	-0.0	125215.1015625	-17245.23828125	-2474.135986328125
0.0145	-0.0	-0.0	-0.0	2.616502046585083	13.675773620605469	-181.9665985107422	-2.524312257766724	-15.043288230895996	-462.0406494140625	-0.0	-0.0	-0.0	-0.0	-0.0	-0.0	125324.140625	-17209.53125	-2424.9775390625
0.015	-0.0	-0.0	-0.0	2.1902318000793457	13.35870361328125	-180.98660278320312	-2.5630719661712646	-15.18183135986328	-462.8579406738281	-0.0	-0.0	-0.0	-0.0	-0.0	-0.0	125002.234375	-17107.28515625	-2480.93603515625
0.0155	-0.0	-0.0	-0.0	2.031755208969116	13.131093978881836	-181.6935272216797	-2.552891731262207	-15.09322452545166	-461.5784301757813	-0.0	-0.0	-0.0	-0.0	-0.0	-0.0	124805.6875	-17262.279296875	-2467.764892578125
0.016	-0.0	-0.0	-0.0	2.250412940979004	13.832415580749512	-182.59402465820312	-2.306480407714844	-15.083311080932615	-459.9105529785156	-0.0	-0.0	-0.0	-0.0	-0.0	-0.0	124715.796875	-17287.876953125	-2434.721435546875
0.0165	-0.0	-0.0	-0.0	1.9947885274887085	13.738000869750977	-183.9738922119141	-2.366065263748169	-15.063459396362305	-458.5142517089844	-0.0	-0.0	-0.0	-0.0	-0.0	-0.0	124244.578125	-17271.546875	-2457.884765625
0.017	-0.0	-0.0	-0.0	1.8937129974365237	14.41081714630127	-185.6923065185547	-2.532761573791504	-15.122846603393556	-459.1343994140625	-0.0	-0.0	-0.0	-0.0	-0.0	-0.0	124306.2890625	-17075.0546875	-2451.419921875
0.0175	-0.0	-0.0	-0.0	2.072206735610962	14.273468017578123	-187.58848571777344	-2.4551846981048584	-14.917683601379396	-457.3099060058594	-0.0	-0.0	-0.0	-0.0	-0.0	-0.0	123912.2734375	-17127.9609375	-2543.268798828125
0.018000000000000002	-0.0	-0.0	-0.0	2.2172670364379883	14.494848251342772	-187.7813262939453	-2.684638738632202	-14.866408348083496	-455.10260009765625	-0.0	-0.0	-0.0	-0.0	-0.0	-0.0	123460.5703125	-17206.828125	-2497.464599609375
0.0185	-0.0	-0.0	-0.0	1.4683780670166016	14.507768630981444	-190.3882293701172	-2.633023738861084	-14.299985885620115	-453.7857360839844	-0.0	-0.0	-0.0	-0.0	-0.0	-0.0	123230.2109375	-17093.35546875	-2504.017578125
0.019	-0.0	-0.0	-0.0	1.3656203746795654	14.487127304077148	-192.7547607421875	-2.6208951473236084	-14.388615608215332	-453.6584167480469	-0.0	-0.0	-0.0	-0.0	-0.0	-0.0	122904.8828125	-16989.47265625	-2448.862548828125
0.0195	-0.0	-0.0	-0.0	1.3588045835494995	14.789030075073242	-194.4941864013672	-2.6486432552337646	-14.396434783935549	-450.3757019042969	-0.0	-0.0	-0.0	-0.0	-0.0	-0.0	121942.859375	-17044.94921875	-2348.999755859375
0.02	-0.0	-0.0	-0.0	1.2696654796600342	15.14583683013916	-197.1313323974609	-2.2177696228027344	-14.436954498291016	-449.249267578125	-0.0	-0.0	-0.0	-0.0	-0.0	-0.0	121614.265625	-17071.126953125	-2490.21923828125
